<mxfile host="app.diagrams.net" modified="2024-02-21T03:24:22.398Z" agent="Mozilla/5.0 (Windows NT 10.0; Win64; x64) AppleWebKit/537.36 (KHTML, like Gecko) Chrome/121.0.0.0 Safari/537.36 Edg/121.0.0.0" version="23.1.5" etag="F9zcCPmq433ZxMMtaEC5" type="github">
  <diagram name="第 1 页" id="GqHBnLz_K4gY6bEQ3Rpc">
    <mxGraphModel>
      <root>
        <mxCell id="0" />
        <mxCell id="1" parent="0" />
      </root>
    </mxGraphModel>
  </diagram>
</mxfile>
